<?xml version="1.0" encoding="utf-8"?>
<svg xmlns="http://www.w3.org/2000/svg" viewBox="0 0 500 500">
  <path d="M 447.939 149.761 C 457.421 156.712 465.146 163.723 471.373 172.941 C 470.203 173.659 469.031 174.376 467.823 175.116 C 443.9 189.886 423.158 206.83 414.336 231.315 C 414.004 232.236 414.004 232.236 413.665 233.178 C 404.273 260.441 408.37 292.12 423.82 317.32 C 437.461 337.252 456.88 350.526 480.5 361.46 C 482.407 362.408 484.311 363.362 486.203 364.331 C 485.554 369.868 483.726 374.507 481.213 379.642 C 480.813 380.468 480.411 381.293 479.998 382.144 C 464.226 414.094 442.64 445.017 414.336 470.383 C 411.919 472.537 411.919 472.537 409.395 475.291 C 406.282 478.446 402.72 480.729 398.723 483.051 C 398.017 483.465 397.313 483.878 396.584 484.304 C 378.05 494.978 358.985 497.43 336.876 494.184 C 325.38 492.211 314.454 488.424 303.504 484.966 C 266.644 473.4 238.065 477.068 201.887 488.315 C 183.613 493.941 161.365 499.762 142.083 493.604 C 141.203 493.26 140.325 492.916 139.418 492.562 C 138.28 492.128 137.142 491.695 135.97 491.249 C 117.374 483.523 103.052 470.672 90.367 457.154 C 89.818 456.575 89.269 455.997 88.704 455.401 C 39.354 403.218 8.762 337.471 8.946 270.489 C 8.947 269.632 8.947 268.775 8.948 267.89 C 8.994 254.124 9.936 240.896 13.937 227.487 C 14.182 226.656 14.426 225.826 14.678 224.97 C 25.17 190.538 48.952 158.844 85.804 140.405 C 116.68 125.607 150.403 120.071 185.123 127.705 C 200.675 131.317 215.663 136.284 230.666 141.226 C 235.848 142.875 240.838 144.421 246.362 144.95 C 247.228 145.044 248.092 145.137 248.983 145.234 C 259.221 145.098 268.548 141.981 278.008 138.96 C 281.792 137.753 285.586 136.574 289.381 135.395 C 290.5 135.048 290.5 135.048 291.641 134.693 C 344.68 118.274 402.389 118.23 447.939 149.761 Z" style="stroke-width: 1; fill: rgb(180, 179, 179);"/>
  <path d="M 365.285 5.475 C 365.946 23.818 363.83 40.241 355.018 57.15 C 354.502 58.15 353.986 59.15 353.454 60.182 C 346.372 72.925 335.769 83.474 324.218 93.514 C 323.42 94.233 322.621 94.953 321.799 95.693 C 305.284 110.217 282.202 118.655 258.413 119.501 C 254.856 119.527 251.338 119.553 247.788 119.352 C 245.129 117.12 246.373 111.692 246.362 108.706 C 246.402 80.076 261.022 55.707 284.507 35.439 C 304.672 18.648 336.502 4.567 365.285 5.475 Z" style="stroke-width: 1; fill: rgb(180, 179, 179);"/>
</svg>