<?xml version="1.0" encoding="UTF-8"?>
<svg version="1.1" xmlns="http://www.w3.org/2000/svg" width="512" height="512">
<path d="M0 0 C0.85318817 -0.00705963 1.70637634 -0.01411926 2.5854187 -0.02139282 C77.10840066 -0.49773209 141.93400892 24.37292576 195.40820312 76.76318359 C201.95394006 83.24529049 208.10268029 89.85389108 213.6796875 97.203125 C214.1123291 97.76999023 214.5449707 98.33685547 214.99072266 98.92089844 C221.41876653 107.37920591 227.31780868 116.02050617 232.6796875 125.203125 C233.20876709 126.09306152 233.20876709 126.09306152 233.74853516 127.00097656 C247.72757563 150.56863986 257.30061613 175.99366141 263.1171875 202.765625 C263.46946411 204.38500977 263.46946411 204.38500977 263.82885742 206.03710938 C267.2181637 222.65110977 268.0901258 239.15884349 268.0546875 256.078125 C268.05387177 257.5531398 268.05387177 257.5531398 268.05303955 259.05795288 C268.01163888 275.40840176 267.03325159 291.15227342 263.6796875 307.203125 C263.47069824 308.21987305 263.26170898 309.23662109 263.04638672 310.28417969 C250.93764827 367.26327704 218.25846848 421.6759554 171.6796875 457.203125 C171.01372559 457.71842773 170.34776367 458.23373047 169.66162109 458.76464844 C158.19931929 467.60274611 146.48263781 475.44368443 133.6796875 482.203125 C132.76010254 482.69022949 131.84051758 483.17733398 130.89306641 483.67919922 C103.36780911 498.04401497 73.70962978 507.81620636 42.6796875 510.203125 C42.6796875 443.873125 42.6796875 377.543125 42.6796875 309.203125 C62.8096875 309.203125 82.9396875 309.203125 103.6796875 309.203125 C104.24558594 304.66433594 104.81148438 300.12554687 105.39453125 295.44921875 C105.75448892 292.56444456 106.11448333 289.67967504 106.47460938 286.79492188 C107.04552363 282.22164283 107.61630584 277.64834758 108.1862793 273.07495117 C108.64609241 269.38553731 109.10651639 265.69620014 109.5673542 262.00691414 C109.74258496 260.60322821 109.91759999 259.19951533 110.09239006 257.79577446 C110.338275 255.82137814 110.58501594 253.84708848 110.83178711 251.87280273 C111.0416349 250.19068947 111.0416349 250.19068947 111.25572205 248.47459412 C111.69996043 245.04669185 112.19085498 241.62495265 112.6796875 238.203125 C89.5796875 238.203125 66.4796875 238.203125 42.6796875 238.203125 C42.586875 224.405 42.586875 224.405 42.4921875 210.328125 C42.46487549 207.44336426 42.43756348 204.55860352 42.40942383 201.58642578 C42.40065358 199.27376727 42.39301092 196.96110408 42.38671875 194.6484375 C42.3636969 192.87907837 42.3636969 192.87907837 42.34020996 191.07397461 C42.33755196 182.59849969 43.01961984 172.99520619 48.6796875 166.203125 C61.50354092 155.16272139 77.57569223 156.82672776 93.4296875 157.015625 C100.7721875 157.0775 108.1146875 157.139375 115.6796875 157.203125 C115.6796875 136.413125 115.6796875 115.623125 115.6796875 94.203125 C52.33052063 88.49484682 52.33052063 88.49484682 -3.5390625 114.48828125 C-22.17625082 132.68048053 -29.23262259 157.79379932 -29.58607483 183.17224121 C-29.60305162 184.58878467 -29.61993069 186.0053293 -29.63671875 187.421875 C-29.65732418 188.89018287 -29.6783215 190.35848529 -29.69969177 191.82678223 C-29.75454225 195.66698759 -29.80411269 199.50724315 -29.85253906 203.34753418 C-29.91192376 207.96828628 -29.97794533 212.58894786 -30.04283905 217.20962524 C-30.14038181 224.2074026 -30.22955628 231.20524152 -30.3203125 238.203125 C-50.7803125 238.203125 -71.2403125 238.203125 -92.3203125 238.203125 C-92.3203125 261.633125 -92.3203125 285.063125 -92.3203125 309.203125 C-71.8603125 309.203125 -51.4003125 309.203125 -30.3203125 309.203125 C-30.3203125 375.203125 -30.3203125 441.203125 -30.3203125 509.203125 C-50.36091995 505.66654721 -50.36091995 505.66654721 -58.8203125 503.140625 C-59.82094727 502.84389893 -60.82158203 502.54717285 -61.85253906 502.24145508 C-98.17918394 491.13160327 -131.47112877 473.1281833 -159.3203125 447.203125 C-160.60833386 446.09470821 -161.89990451 444.99039995 -163.1953125 443.890625 C-172.48690791 435.76282538 -180.69646753 426.9002359 -188.3203125 417.203125 C-189.18954788 416.14560518 -190.06072223 415.08967682 -190.93359375 414.03515625 C-197.79129889 405.66357112 -203.54808189 396.83910393 -208.98828125 387.49121094 C-209.85603207 386.00063896 -210.73070776 384.51407012 -211.61328125 383.03222656 C-234.27689652 344.93991935 -244.80002542 301.23444413 -244.6328125 257.140625 C-244.63098969 256.14456238 -244.62916687 255.14849976 -244.62728882 254.12225342 C-244.58254505 239.60982213 -244.12500293 225.48002981 -241.3203125 211.203125 C-241.15934082 210.30754883 -240.99836914 209.41197266 -240.83251953 208.48925781 C-231.86945772 158.94703141 -207.87454475 114.4834706 -173.3203125 78.203125 C-172.75006348 77.60419434 -172.17981445 77.00526367 -171.59228516 76.38818359 C-163.59203124 68.04785969 -155.37564293 60.40260364 -146.08837891 53.51806641 C-144.28088891 52.173805 -142.49357638 50.80553373 -140.70703125 49.43359375 C-126.88865364 38.93089321 -111.94697821 30.68420968 -96.3203125 23.203125 C-95.40378906 22.75453125 -94.48726562 22.3059375 -93.54296875 21.84375 C-64.87725425 8.2396821 -31.76289879 0.17674141 0 0 Z " fill="#010002" transform="translate(244.3203125,0.796875)"/>
</svg>
