<?xml version="1.0" encoding="utf-8"?>
<svg xmlns="http://www.w3.org/2000/svg" viewBox="0 0 500 500">
  <path d="M 238.65 3.443 C 239.47 3.436 240.291 3.43 241.137 3.423 C 312.839 2.962 375.212 27.049 426.662 77.79 C 432.96 84.069 438.876 90.469 444.242 97.587 C 444.657 98.136 445.075 98.685 445.503 99.251 C 451.688 107.443 457.364 115.813 462.523 124.706 C 463.032 125.568 463.032 125.568 463.551 126.447 C 477.001 149.273 486.212 173.898 491.808 199.827 C 492.147 201.395 492.147 201.395 492.493 202.995 C 495.754 219.086 496.593 235.075 496.559 251.461 C 496.558 252.89 496.558 252.89 496.557 254.348 C 496.518 270.184 495.576 285.432 492.35 300.977 C 492.149 301.962 491.947 302.947 491.739 303.961 C 480.09 359.148 448.647 411.847 403.831 446.256 C 403.191 446.756 402.55 447.255 401.89 447.769 C 390.861 456.329 379.588 463.923 367.27 470.469 C 366.385 470.942 365.5 471.414 364.588 471.899 C 338.106 485.812 309.57 495.276 279.714 497.588 C 279.714 433.346 279.714 369.103 279.714 302.914 C 299.082 302.914 318.451 302.914 338.405 302.914 C 338.95 298.519 339.494 294.123 340.055 289.594 C 340.402 286.8 340.748 284.006 341.095 281.212 C 341.644 276.783 342.192 272.353 342.741 267.923 C 343.183 264.351 343.627 260.777 344.07 257.204 C 344.239 255.845 344.407 254.485 344.574 253.125 C 344.812 251.213 345.049 249.301 345.287 247.389 C 345.488 245.76 345.488 245.76 345.694 244.098 C 346.122 240.778 346.594 237.463 347.064 234.149 C 324.84 234.149 302.614 234.149 279.714 234.149 C 279.625 220.785 279.625 220.785 279.533 207.151 C 279.507 204.358 279.482 201.564 279.453 198.685 C 279.446 196.445 279.438 194.205 279.432 191.966 C 279.41 190.252 279.41 190.252 279.387 188.503 C 279.385 180.295 280.042 170.993 285.488 164.415 C 297.826 153.723 313.29 155.334 328.543 155.517 C 335.608 155.577 342.673 155.637 349.951 155.698 C 349.951 135.563 349.951 115.427 349.951 94.681 C 288.999 89.153 288.999 89.153 235.245 114.329 C 217.313 131.948 210.523 156.271 210.184 180.851 C 210.167 182.222 210.151 183.595 210.134 184.966 C 210.115 186.388 210.095 187.811 210.074 189.233 C 210.02 192.952 209.974 196.672 209.926 200.391 C 209.87 204.867 209.806 209.341 209.743 213.817 C 209.65 220.594 209.563 227.372 209.477 234.149 C 189.791 234.149 170.106 234.149 149.824 234.149 C 149.824 256.842 149.824 279.534 149.824 302.914 C 169.509 302.914 189.194 302.914 209.477 302.914 C 209.477 366.837 209.477 430.76 209.477 496.62 C 190.195 493.195 190.195 493.195 182.056 490.748 C 181.092 490.461 180.13 490.173 179.138 489.878 C 144.187 479.117 112.154 461.68 85.359 436.571 C 84.121 435.498 82.877 434.429 81.631 433.363 C 72.691 425.491 64.792 416.908 57.457 407.515 C 56.62 406.491 55.782 405.469 54.942 404.447 C 48.345 396.339 42.805 387.792 37.572 378.739 C 36.736 377.295 35.894 375.855 35.045 374.421 C 13.24 337.527 3.115 295.197 3.275 252.491 C 3.277 251.526 3.279 250.562 3.281 249.568 C 3.323 235.512 3.765 221.826 6.463 207.999 C 6.618 207.132 6.773 206.264 6.932 205.371 C 15.557 157.387 38.642 114.324 71.889 79.185 C 72.437 78.605 72.987 78.025 73.552 77.427 C 81.249 69.349 89.154 61.945 98.091 55.277 C 99.829 53.975 101.549 52.65 103.268 51.321 C 116.563 41.149 130.94 33.161 145.975 25.916 C 146.856 25.482 147.738 25.047 148.646 24.6 C 176.228 11.424 208.088 3.615 238.65 3.443 Z" style="stroke-width: 1; fill: rgb(180, 179, 179);"/>
</svg>