<?xml version="1.0" encoding="utf-8"?>
<svg xmlns="http://www.w3.org/2000/svg" viewBox="0 0 500 500">
  <path d="M 299.437 7.349 C 300.315 7.525 301.192 7.701 302.096 7.882 C 338.173 15.21 372.926 30.631 401.706 53.726 C 401.142 57.642 399.119 59.97 396.702 63.026 C 396.278 63.565 395.856 64.105 395.42 64.66 C 394.486 65.852 393.549 67.041 392.61 68.23 C 389.894 71.673 387.21 75.141 384.521 78.605 C 383.95 79.34 383.38 80.073 382.791 80.829 C 377.308 87.886 371.888 94.988 366.471 102.097 C 363.572 105.898 360.656 109.69 357.736 113.479 C 356.058 115.666 354.387 117.86 352.724 120.061 C 352.064 120.932 352.064 120.932 351.389 121.821 C 350.542 122.937 349.698 124.055 348.856 125.177 C 345.965 128.981 345.965 128.981 343.818 130.055 C 342.964 129.458 342.11 128.861 341.23 128.247 C 304.585 103.01 263.3 93.932 219.359 102.036 C 213.76 103.272 208.366 104.973 202.957 106.866 C 201.885 107.234 200.813 107.602 199.709 107.98 C 180.261 115.051 160.345 126.015 146.295 141.476 C 145.069 142.615 145.069 142.615 143.139 142.615 C 142.881 143.196 142.623 143.776 142.356 144.374 C 141.191 146.513 140.12 147.652 138.316 149.258 C 112.811 174.164 100.433 213.601 99.446 248.371 C 99.248 265.66 101.746 282.823 107.441 299.138 C 107.81 300.211 108.176 301.284 108.554 302.391 C 115.615 321.867 126.564 341.811 142.002 355.882 C 143.139 357.109 143.139 357.109 143.139 359.041 C 143.719 359.301 144.299 359.559 144.896 359.826 C 147.034 360.992 148.169 362.067 149.772 363.872 C 174.883 389.66 214.553 401.929 249.581 402.799 C 291.367 403.216 329.267 386.509 358.954 357.472 C 360.059 356.335 360.059 356.335 361.185 355.177 C 361.901 354.524 361.901 354.524 362.632 353.86 C 378.381 339.146 387.728 317.312 395.917 298.172 C 348.16 298.172 300.402 298.172 251.197 298.172 C 251.197 266.925 251.197 235.678 251.197 203.485 C 332.703 203.485 414.21 203.485 498.186 203.485 C 498.186 283.104 498.186 283.104 493.182 305.357 C 492.983 306.255 492.783 307.155 492.576 308.08 C 484.177 344.167 467.393 377.65 444.157 406.384 C 443.733 406.91 443.308 407.437 442.871 407.979 C 431.798 421.574 419.481 434.343 405.565 445.032 C 404.668 445.765 403.77 446.498 402.845 447.255 C 371.729 472.24 333.664 488.151 294.614 495.274 C 293.807 495.432 293.001 495.59 292.17 495.753 C 265.437 500.866 234.458 500.508 207.781 495.274 C 206.901 495.114 206.02 494.952 205.112 494.787 C 164.946 487.386 127.548 469.761 95.864 444.066 C 95.339 443.641 94.815 443.216 94.273 442.777 C 80.697 431.687 67.947 419.353 57.272 405.418 C 56.54 404.519 55.807 403.62 55.053 402.694 C 30.104 371.532 14.216 333.413 7.102 294.307 C 6.945 293.499 6.787 292.692 6.623 291.861 C 1.52 265.087 1.877 234.064 7.102 207.35 C 7.263 206.468 7.424 205.585 7.589 204.676 C 14.979 164.452 32.58 127 58.237 95.272 C 58.663 94.746 59.087 94.22 59.524 93.678 C 70.598 80.082 82.915 67.314 96.829 56.624 C 97.727 55.891 98.626 55.157 99.551 54.401 C 130.672 29.413 168.729 13.517 207.781 6.383 C 208.983 6.145 208.983 6.145 210.21 5.903 C 238.718 0.41 271.111 1.359 299.437 7.349 Z" style="stroke-width: 1; fill: rgb(180, 179, 179);"/>
</svg>